<?xml version="1.0" encoding="UTF-8" standalone="no"?>
<svg
   width="500"
   zoomAndPan="magnify"
   viewBox="0 0 375 374.999991"
   height="500"
   preserveAspectRatio="xMidYMid meet"
   version="1.0"
   id="svg6"
   sodipodi:docname="Codexon-Square.svg"
   inkscape:version="1.4 (e7c3feb, 2024-10-09)"
   xmlns:inkscape="http://www.inkscape.org/namespaces/inkscape"
   xmlns:sodipodi="http://sodipodi.sourceforge.net/DTD/sodipodi-0.dtd"
   xmlns="http://www.w3.org/2000/svg"
   xmlns:svg="http://www.w3.org/2000/svg">
  <sodipodi:namedview
     id="namedview6"
     pagecolor="#ffffff"
     bordercolor="#000000"
     borderopacity="0.25"
     inkscape:showpageshadow="2"
     inkscape:pageopacity="0.0"
     inkscape:pagecheckerboard="0"
     inkscape:deskcolor="#d1d1d1"
     inkscape:zoom="0.803"
     inkscape:cx="283.31258"
     inkscape:cy="349.31507"
     inkscape:window-width="1280"
     inkscape:window-height="987"
     inkscape:window-x="1920"
     inkscape:window-y="0"
     inkscape:window-maximized="1"
     inkscape:current-layer="svg6" />
  <defs
     id="defs3">
    <clipPath
       id="37ce4dcdca">
      <path
         d="M 25.078125 123 L 349.828125 123 L 349.828125 375 L 25.078125 375 Z M 25.078125 123 "
         clip-rule="nonzero"
         id="path1" />
    </clipPath>
    <clipPath
       id="e3adbdd7c2">
      <path
         d="M 25.078125 0 L 349.828125 0 L 349.828125 215 L 25.078125 215 Z M 25.078125 0 "
         clip-rule="nonzero"
         id="path2" />
    </clipPath>
    <clipPath
       id="d467bc77a6">
      <path
         d="M 0 0 L 11.664062 0 L 11.664062 14.390625 L 0 14.390625 Z M 0 0 "
         clip-rule="nonzero"
         id="path3" />
    </clipPath>
  </defs>
  <g
     clip-path="url(#37ce4dcdca)"
     id="g4">
    <path
       fill="#202f90"
       d="M 143.25 273.441406 L 349.882812 154.167969 L 349.882812 281.234375 L 187.492188 374.992188 L 25.101562 281.257812 L 25.085938 281.257812 L 25.085938 260.027344 L 263.316406 123.804688 L 280.601562 133.816406 L 280.601562 152.636719 L 74.027344 270.660156 L 187.492188 336.144531 L 316.246094 261.8125 L 316.246094 212.398438 L 176.863281 292.855469 Z M 143.25 273.441406 "
       fill-opacity="1"
       fill-rule="nonzero"
       id="path4" />
  </g>
  <g
     clip-path="url(#e3adbdd7c2)"
     id="g5">
    <path
       fill="#202f90"
       d="M 349.882812 93.742188 L 349.882812 113.117188 L 316.246094 132.328125 L 316.246094 113.15625 L 258.429688 79.785156 L 25.085938 214.480469 L 25.085938 93.742188 L 187.46875 0 L 221.109375 19.414062 L 58.722656 113.164062 L 58.722656 156.242188 L 258.445312 40.960938 Z M 349.882812 93.742188 "
       fill-opacity="1"
       fill-rule="nonzero"
       id="path5" />
  </g>
</svg>
